<?xml version="1.0" encoding="utf-8"?>
<svg version="1.2" baseProfile="tiny-ps" xmlns="http://www.w3.org/2000/svg" width="309px" height="310px" viewBox="0 0 309 310" preserveAspectRatio="xMidYMid meet">
 <g fill="#161516">
  <path d="M 0 155 l 0 -155 154.50 0 154.50 0 0 155 0 155 -154.50 0 -154.50 0 0 -155 z "/>
 </g>
 <g fill="#fefefe">
  <path d="M 0 155 l 0 -155 154.50 0 154.50 0 0 155 0 155 -154.50 0 -154.50 0 0 -155 z  m 289.15 149.95 c 5.70 -2.05 9.50 -4.80 12.55 -9.20 1.15 -1.65 2.40 -3.65 2.70 -4.40 0.75 -1.75 0.90 -270.85 0.15 -272.25 -0.25 -0.45 -0.75 -1.55 -1.15 -2.35 -1.85 -4.20 -5.55 -7.70 -10.85 -10.30 -2.35 -1.15 -4.05 -1.55 -8.60 -1.95 -8.20 -0.70 -254.05 -0.70 -259.30 0.05 -9.85 1.35 -17.55 7.95 -20.10 17.25 -0.40 1.50 -0.55 37.65 -0.55 133.10 0 112.95 0.10 131.45 0.75 133.85 2 7.75 7.85 13.85 16 16.65 1 0.35 44.60 0.50 133.45 0.55 l 132 0.05 2.95 -1.05 z "/>
  <path d="M 26.25 292.35 c -2.75 -1.10 -4.65 -2.30 -5.75 -3.70 -2.55 -3.25 -2.50 -2.45 -2.50 -37.90 l 0 -33.15 29.15 -0.20 c 16 -0.05 77.40 -0.05 136.50 0 l 107.35 0.20 0 33.40 c 0 36.70 0.10 35.45 -3.05 38.50 -0.85 0.80 -2.80 1.95 -4.30 2.50 -2.65 1 -3.30 1 -129.30 0.95 -95.80 0 -126.95 -0.15 -128.10 -0.60 z  m 50.75 -16.30 c 4.25 -2 6.30 -4.50 8.05 -9.80 1.05 -3.15 1.15 -4.45 1.15 -12.25 0 -10.05 -0.65 -12.60 -4.20 -16.65 -3.25 -3.65 -5.70 -4.55 -12.50 -4.55 -5.35 -0.05 -5.95 0.05 -8.50 1.35 -3.30 1.70 -4.25 2.55 -5.80 4.95 -2.20 3.45 -3.20 8.65 -3.20 16.50 0 9.55 1.25 14.15 4.85 17.70 3.40 3.40 6.10 4.25 12.90 4 3.80 -0.15 5.55 -0.45 7.25 -1.25 z  m 119.50 -0.20 c 3.10 -1.35 5.75 -3.80 6.80 -6.30 0.40 -0.95 0.70 -3.30 0.70 -5.55 0 -3.55 -0.15 -4.10 -1.60 -6.30 -0.90 -1.30 -2.35 -2.75 -3.20 -3.20 l -1.55 -0.80 1.90 -1.65 c 2.50 -2.05 3.45 -4.35 3.45 -8.30 0 -2.70 -0.20 -3.45 -1.60 -5.55 -1.15 -1.70 -2.50 -2.90 -4.40 -3.90 -2.50 -1.40 -3.15 -1.50 -7.75 -1.50 -4.25 0 -5.40 0.20 -7.75 1.30 -4.05 1.85 -6.80 4.85 -7.65 8.40 -0.40 1.70 0 2.20 2.45 2.90 3.25 0.95 3.95 0.80 5.40 -1.40 1.80 -2.75 3.80 -3.65 7.20 -3.40 2.35 0.20 3 0.50 4.20 1.85 1.45 1.65 1.75 3.50 0.90 5.75 -0.50 1.30 -2.25 2.05 -6.40 2.65 -2.35 0.30 -2.80 1.05 -2.50 4.45 l 0.15 1.95 2.50 0.05 c 4.80 0.05 7.75 2.55 7.75 6.60 0 2.40 -1.40 4.35 -3.85 5.35 -2.15 0.90 -3.65 0.95 -6.25 0.15 -2.10 -0.60 -5.40 -3.50 -5.40 -4.70 0 -0.95 -2.50 -0.90 -4.75 0 -1.60 0.70 -1.75 0.95 -1.75 2.75 0 3.30 1.10 5.20 4.30 7.45 4.15 2.85 13.35 3.35 18.70 0.95 z  M220.75 272.05 C 220.75 269 218.25 266.55 215.25 266.55 212.20 266.55 209.75 269 209.75 272.05 209.75 275.10 212.20 277.55 215.25 277.55 218.25 277.55 220.75 275.10 220.75 272.05 Z M217.75 276.80  m -106.85 -21.60 c 0.15 -23.95 0.40 -22.50 -4.10 -22.40 -2.55 0.05 -3.35 0.45 -12.15 5.50 l -1.65 0.95 0 4.40 c 0 3.95 0.10 4.35 0.95 4.35 0.50 0 2.35 -1.10 4.10 -2.50 1.75 -1.35 3.35 -2.50 3.60 -2.50 0.20 0 0.35 7.50 0.35 16.70 0 10.50 0.20 16.80 0.50 16.90 0.25 0.10 2.25 0.05 4.35 -0.10 l 3.90 -0.25 0.15 -21.05 z  m 58 21.15 c 0.80 -0.55 0.80 -5.40 -0.05 -6.55 -0.60 -0.85 -1.45 -0.90 -9.55 -0.70 l -8.90 0.15 2.20 -1.90 c 14.20 -12.75 15.40 -14.45 15.40 -21.70 0 -4.10 -0.90 -6.65 -3.15 -9.05 -3 -3.15 -4.95 -3.80 -11.10 -3.85 -5.20 0 -5.65 0.10 -8.20 1.50 -3 1.65 -6 4.90 -6.90 7.50 -0.65 1.90 -0.45 2.15 2.95 4.20 2.45 1.45 3.30 1.25 4.65 -1.20 0.65 -1.10 1.90 -2.55 2.80 -3.15 1.45 -1 2.15 -1.15 4.65 -1 2.55 0.20 3.15 0.45 4.35 1.80 1.75 2 1.95 5.15 0.50 8.05 -0.85 1.65 -5.45 6.15 -13.55 13.35 -6.70 5.95 -6 4.95 -6 8.95 0 1.95 0.10 3.70 0.20 3.80 0.40 0.40 29.05 0.20 29.70 -0.20 z  m 81.60 0.15 c 0.50 -0.30 0.75 -1.35 0.75 -3.35 l 0 -2.90 2.90 -0.15 2.85 -0.15 0 -3.65 c 0 -4.15 -0.15 -4.30 -3.80 -4.30 l -2.20 0 0 -13.30 c 0 -15.50 0.30 -14.65 -5.15 -14.70 -3.50 0 -5.50 0.65 -6.85 2.35 -1.75 2.10 -9.80 14.85 -14.30 22.65 -1.75 2.95 -1.90 3.55 -1.85 6.60 0.05 1.85 0.20 3.60 0.40 3.90 0.20 0.30 3.90 0.50 10 0.50 l 9.75 0 -0.30 2.20 c -0.20 1.25 -0.20 2.80 0 3.50 0.30 1.25 0.50 1.30 3.70 1.30 1.85 0 3.70 -0.25 4.10 -0.50 z  M131.40 267.70 C 131.40 264.75 129 262.35 126.05 262.35 123.10 262.35 120.70 264.75 120.70 267.70 120.70 270.65 123.10 273.05 126.05 273.05 129 273.05 131.40 270.65 131.40 267.70 Z M129 272.10  m -3.20 -21.15 c 1.50 0.05 2.75 -0.10 2.95 -0.45 0.20 -0.30 0.75 -0.40 1.25 -0.25 0.75 0.25 1 -0.05 1.30 -1.55 0.70 -3.65 -1.55 -6.35 -5.30 -6.35 -4.15 0 -6.60 3.75 -4.85 7.45 0.55 1.10 1.10 1.60 1.45 1.40 0.30 -0.20 1.75 -0.30 3.20 -0.25 z "/>
  <path d="M 67.25 269.40 c -5.10 -1.15 -7.25 -7.30 -6.25 -17.85 0.50 -5.65 1.95 -8.80 4.50 -10.15 3.65 -1.90 8.40 -0.65 10.10 2.70 2.20 4.30 2.50 16.30 0.50 20.95 -1.55 3.55 -4.95 5.25 -8.85 4.35 z "/>
  <path d="M 232 261.75 c 0 -0.20 0.85 -1.60 1.90 -3.15 1.05 -1.55 3.30 -5.25 5.05 -8.20 3.25 -5.50 4.45 -6.70 3.85 -3.85 -0.15 0.85 -0.30 4.70 -0.30 8.50 l 0 6.95 -5.25 0 c -2.90 0 -5.25 -0.10 -5.25 -0.25 z "/>
  <path d="M 18 115.40 l 0 -89.65 1.05 -1.75 c 1.50 -2.45 3.10 -3.90 5.75 -5 2.25 -1 4.05 -1 129.70 -1 125.65 0 127.45 0 129.70 1 2.65 1.10 4.25 2.55 5.75 5 l 1.05 1.75 0 89.65 0 89.60 -136.50 0 -136.50 0 0 -89.60 z  m 244.40 66.65 c 2.15 -1.10 3.65 -2.65 4.80 -4.90 0.70 -1.45 0.80 -7.65 0.80 -65.55 l 0 -64 -1.65 -2.40 c -0.85 -1.35 -2.40 -2.85 -3.35 -3.45 -1.75 -1 -2 -1 -108.60 -1 l -106.80 0 -2.15 1.55 c -1.20 0.85 -2.60 2.45 -3.20 3.50 -1 1.95 -1 2.70 -1.15 64.95 -0.15 69.85 -0.30 65.90 3.15 69.25 0.95 0.95 2.35 2 3.15 2.30 1.05 0.50 25.25 0.65 107.25 0.65 103.15 0.05 105.95 0.05 107.75 -0.90 z "/>
  <path d="M 55.60 168.90 c -0.85 -0.85 -0.85 -113.45 0 -114.30 0.85 -0.85 197.95 -0.85 198.80 0 0.85 0.85 0.85 113.45 0 114.30 -0.85 0.85 -197.95 0.85 -198.80 0 z  m 84.50 -23.85 c 0.90 -0.50 11.45 -6.80 23.45 -14 13.95 -8.30 22.15 -13.55 22.70 -14.40 0.50 -0.75 1 -2.30 1.15 -3.50 0.35 -3.25 -0.95 -5.65 -4.05 -7.60 -4.10 -2.55 -25.85 -15.45 -28.60 -17 -1.35 -0.80 -5.20 -3.05 -8.50 -5.05 -7.70 -4.65 -8.80 -5.15 -11.40 -4.75 -2.55 0.40 -3.40 1 -4.80 3.25 -1.05 1.75 -1.05 2.10 -1.05 30.10 0 31.30 -0.10 30.55 3.15 32.75 2.05 1.40 5.70 1.50 7.95 0.20 z "/>
 </g>
</svg>